<svg xmlns="http://www.w3.org/2000/svg" viewBox="0 0 32 32"><defs><style>.cls-1{fill:#231f20;}</style></defs><g id="credit_card" data-name="credit card"><path class="cls-1" d="M27.55,6H4.45A2.45,2.45,0,0,0,2,8.45v15.1A2.45,2.45,0,0,0,4.45,26h23.1A2.45,2.45,0,0,0,30,23.55V8.45A2.45,2.45,0,0,0,27.55,6ZM4.45,8h23.1a.45.45,0,0,1,.45.45V12H4V8.45A.45.45,0,0,1,4.45,8Zm23.1,16H4.45A.45.45,0,0,1,4,23.55V14H28v9.55A.45.45,0,0,1,27.55,24Z"/><path class="cls-1" d="M24.18,17H19.82A1.83,1.83,0,0,0,18,18.82v1.36A1.83,1.83,0,0,0,19.82,22h4.36A1.83,1.83,0,0,0,26,20.18V18.82A1.83,1.83,0,0,0,24.18,17ZM24,20H20V19h4Z"/><path class="cls-1" d="M6,18H9a1,1,0,0,0,0-2H6a1,1,0,0,0,0,2Z"/><path class="cls-1" d="M12,20H6a1,1,0,0,0,0,2h6a1,1,0,0,0,0-2Z"/></g></svg>