<svg xmlns="http://www.w3.org/2000/svg" viewBox="0 0 32 32"><defs><style>.cls-1{fill:#231f20;}</style></defs><g id="customer_service" data-name="customer service"><path class="cls-1" d="M28.33,12.23A13.07,13.07,0,0,0,16,3,13.07,13.07,0,0,0,3.67,12.23,2.76,2.76,0,0,0,2,14.77v2.46a2.78,2.78,0,0,0,1.35,2.38A2.72,2.72,0,0,0,4.77,20H6.26c0,.21.07.43.12.64,1,4.27,4.21,7.54,8.1,8.22a2.74,2.74,0,0,0,.5.08,4.4,4.4,0,0,0,.51,0h1a4.4,4.4,0,0,0,.51,0,2.74,2.74,0,0,0,.5-.08A9.93,9.93,0,0,0,24.24,24h.81A3,3,0,0,0,28,21.05V19.89a2.9,2.9,0,0,0,.65-.28A2.78,2.78,0,0,0,30,17.23V14.77A2.76,2.76,0,0,0,28.33,12.23ZM16,5a11,11,0,0,1,10.13,7H24.91l-.12,0A9.9,9.9,0,0,0,16,6a9.9,9.9,0,0,0-8.79,6l-.12,0H5.87A11,11,0,0,1,16,5Zm7.67,9.84a10.55,10.55,0,0,1-4.11-1.67,10.5,10.5,0,0,1-2.74-2.74,1,1,0,0,0-1.64,0,10.5,10.5,0,0,1-2.74,2.74,10.55,10.55,0,0,1-4.11,1.67c1-3.9,4.05-6.75,7.67-6.75S22.69,10.94,23.67,14.84ZM6,18H4.77A.76.76,0,0,1,4,17.23V14.77A.76.76,0,0,1,4.77,14H6Zm10,8.91c-4.41,0-8-4.22-8-9.41,0-.2,0-.4,0-.59a12.66,12.66,0,0,0,5.53-2.08A12.11,12.11,0,0,0,16,12.64a12.11,12.11,0,0,0,2.44,2.19A12.66,12.66,0,0,0,24,16.91c0,.19,0,.39,0,.59A10.56,10.56,0,0,1,23,22h-3.3A2,2,0,0,0,18,21H16a2,2,0,0,0,0,4h2a2,2,0,0,0,1.72-1h2.05A7.46,7.46,0,0,1,16,26.91ZM25.21,22a12,12,0,0,0,.41-1.33c.05-.21.08-.43.12-.64H26v1.05A.94.94,0,0,1,25.21,22ZM28,17.23a.76.76,0,0,1-.77.77H26V14h1.23a.76.76,0,0,1,.77.77Z"/></g></svg>